<?xml version="1.0" encoding="UTF-8"?>
<!DOCTYPE svg PUBLIC "-//W3C//DTD SVG 1.1//EN" "http://www.w3.org/Graphics/SVG/1.1/DTD/svg11.dtd">
<!-- Creator: CorelDRAW 2018 (64 Bit Versão de avaliação) -->
<svg xmlns="http://www.w3.org/2000/svg" xml:space="preserve" width="1521px" height="1525px" version="1.1" style="shape-rendering:geometricPrecision; text-rendering:geometricPrecision; image-rendering:optimizeQuality; fill-rule:evenodd; clip-rule:evenodd"
viewBox="0 0 1591.63 1596.16"
 xmlns:xlink="http://www.w3.org/1999/xlink">
 <defs>
  <style type="text/css">
   <![CDATA[
    .fil0 {fill:#FEFEFE}
    .fil1 {fill:#11BDEE}
   ]]>
  </style>
 </defs>
 <g id="Camada_x0020_1">
  <metadata id="CorelCorpID_0Corel-Layer"/>
  <path class="fil0" d="M235.4 205.04l1116.76 0 0 834.8c0,305.97 -250.33,556.32 -556.3,556.32l-4.15 0c-305.97,0 -556.31,-250.35 -556.31,-556.32l0 -834.8z"/>
  <path class="fil1" d="M235.47 918.3c64.29,17.13 180.23,39.59 250.56,30.16 158.86,-21.29 161.6,-62.91 212.7,-72.45 28.7,54.24 35.92,22.78 -17.68,119.25 -22.31,40.15 -36.38,81.65 -42.43,136.09 -6.18,55.6 -1.7,113.39 14.86,160 12.36,34.79 47.66,95.32 69.72,113.74 1.43,-35.05 -4.97,-76.17 26.83,-87.3 27.98,20.47 46.47,148.09 48.77,195.41 25.16,-9.11 86.79,-104.71 99.52,-126.3 31.15,-52.79 46.95,-98.96 64.51,-166.41 17.05,-65.52 1.82,-141.71 -21.88,-194.72 -50.44,-112.87 -78.71,-110.73 -41.61,-151.82 29.38,14.96 50.85,31.73 86.75,45.73 34.54,13.47 72.29,24.24 112.62,26.56 101.29,5.82 161.99,-6.17 253.09,-28.14l49.99 -13.26c15.58,-5.15 40.37,-13.92 54.66,-15.11 -11.41,-17.04 -16.05,-12.1 -23.49,-37.56 -7.88,-26.96 -6.8,-25.4 -20.12,-45.29 31.72,-7.39 63.97,-28.47 78.53,-52.29 9.89,-16.2 29.7,-73.87 34.85,-95.97 -20.43,1.7 -24.75,8.4 -41.84,14.84 -12.67,4.78 -31.6,10.18 -45.37,11.32 5.07,-18.98 11.68,-16.29 25,-27.32 30.27,-25.07 70.87,-98.75 88.44,-133.96 13.05,-26.14 38.56,-102.97 39.18,-130.88 -15.58,5.34 -18.28,6.79 -29.68,13.92l-61.82 29.76c-14.14,5.82 -18.62,8.65 -39.32,8.65 22.78,-34.02 41.08,-23.48 76.91,-132.41 18.11,-55.07 23.39,-114.38 23.39,-185.92 -1.38,1.59 -2.69,3.09 -4.04,4.69l-33.88 44.6c-13.1,16.01 -23.73,36.62 -44.94,42.29l21.66 -161.5c1.57,-20.69 4.82,-38.84 6.31,-56.7 -15.81,11.2 -20.09,18.14 -23.64,21.93l-99.02 136.46c-28.26,37.91 -56.87,68.63 -91.2,100.69 -87.12,65.94 -164.91,87.16 -255.96,158.31 -74.88,58.51 -92.87,134.81 -124.85,135.66 -50.49,1.35 -30.99,-65.66 -39.36,-99.55 -6.76,-27.4 -20.15,-44.96 -25.41,-65.15 52.64,-0.92 96.69,13.04 113.14,-30.02 -106.32,0.36 -122.42,-61.53 -248.23,-30.3 -30.85,7.65 -106.79,-17.52 -122.85,51.81 50.76,3.93 77.61,8.57 104.88,38.55 23.68,26.04 33.49,67.21 18.19,106.06 -31.45,79.85 -81.51,-27.25 -101.59,-53.08 -48.35,-62.23 -136,-110.8 -205.67,-147.73 -145.96,-77.37 -205.58,-154.3 -286.73,-297.5 -7.53,-13.29 -7.85,-11.9 -17.62,-25.98 0,32.91 -3.12,86.29 1.09,116.65 3.84,27.71 11.99,74.58 11.99,105.75l-6.77 -6.32c-29.65,-25.76 -50.84,-55.67 -76.09,-85.26 0,79.1 17.01,193.69 54.84,254.77l45.46 59.2c-45.54,-3.79 -97.27,-34.58 -130.82,-52.33 0.45,20.42 15.73,68.96 22.4,86.62 62.44,165.25 101.08,155.52 134.58,205.54 -49.05,0 -60.92,-19.02 -91.57,-26.16 3.06,17.47 -0.59,19.44 14.46,50.95 7.65,16.03 15.23,31.16 25.97,43.8 29.56,34.8 41.49,38.92 77.31,57.87 -7.78,29.12 -40.21,65.76 -43.61,78.49 19.19,4.48 25.29,9.64 46.19,14.87l49.74 13.7z"/>
 </g>
</svg>
