<?xml version="1.0" encoding="UTF-8"?>
<svg id="icon" xmlns="http://www.w3.org/2000/svg" viewBox="0 0 766.452 768.071">
  <defs>
    <style>
      .cls-1 {
        fill: #f0f8fb;
      }

      .cls-1, .cls-2 {
        stroke-width: 0px;
      }

      .cls-2 {
        fill: #ff4153;
      }
    </style>
  </defs>
  <g id="gato_bra_ver" data-name="gato bra+ver">
    <polygon class="cls-1" points="583.42 258.855 583.42 208.855 533.42 258.855 232.97 258.855 232.97 258.825 182.97 208.825 182.97 258.855 132.968 258.855 132.968 559.242 633.484 559.242 633.484 258.855 583.42 258.855"/>
    <g>
      <polygon class="cls-2" points="533.36 409.106 483.36 459.116 483.35 459.116 483.29 459.186 433.3 509.176 533.36 509.176 533.36 509.126 533.41 509.176 583.42 509.176 583.42 359.046 533.36 409.106"/>
      <polygon class="cls-2" points="383.23 559.246 433.23 509.246 433.23 509.176 333.16 509.176 383.23 559.246"/>
      <polygon class="cls-2" points="283.03 459.186 283.03 459.046 233.03 409.046 232.97 409.106 232.97 408.986 182.97 358.986 182.97 509.176 232.97 509.176 232.97 509.116 233.03 509.176 333.1 509.176 333.1 509.116 283.1 459.116 283.03 459.186"/>
    </g>
  </g>
</svg>