<?xml version="1.0" encoding="UTF-8"?>
<!DOCTYPE svg PUBLIC "-//W3C//DTD SVG 1.1//EN" "http://www.w3.org/Graphics/SVG/1.1/DTD/svg11.dtd">
<!-- Creator: CorelDRAW 2018 (64 Bit Versão de avaliação) -->
<svg xmlns="http://www.w3.org/2000/svg" xml:space="preserve" width="650px" height="650px" version="1.1" style="shape-rendering:geometricPrecision; text-rendering:geometricPrecision; image-rendering:optimizeQuality; fill-rule:evenodd; clip-rule:evenodd"
viewBox="0 0 650 650"
 xmlns:xlink="http://www.w3.org/1999/xlink">
 <defs>
  <style type="text/css">
   <![CDATA[
    .fil2 {fill:#006319;fill-rule:nonzero}
    .fil1 {fill:#00CC33;fill-rule:nonzero}
    .fil0 {fill:#66FF99;fill-rule:nonzero}
   ]]>
  </style>
 </defs>
 <g id="Camada_x0020_1">
  <metadata id="CorelCorpID_0Corel-Layer"/>
  <path class="fil0" d="M536.45 78.2c72.2,61.91 113.55,151.53 113.55,246.8 0,80.74 -29.45,154.61 -78.2,211.45l-13.81 -13.81 -21.66 -21.66 -35.54 -35.54 -27.58 -27.58 -8.05 -8.05c21.88,-29.22 34.84,-65.5 34.84,-104.81 0,-20.64 -3.57,-40.44 -10.13,-58.82l38.19 -38.19c14.06,29.37 21.94,62.27 21.94,97.01 0,34.74 -7.88,67.63 -21.94,97.01l37.08 37.08c22.2,-39.67 34.86,-85.4 34.86,-134.09 0,-66.94 -23.92,-128.29 -63.67,-175.98 -70.45,70.44 -140.89,140.89 -211.33,211.33l-211.33 -211.33c-39.75,47.69 -63.67,109.04 -63.67,175.98 0,66.94 23.92,128.29 63.67,175.98l-35.47 35.47c-48.75,-56.84 -78.2,-130.71 -78.2,-211.45 0,-95.27 41.35,-184.89 113.55,-246.8l211.45 211.45c70.48,-70.49 140.96,-140.98 211.45,-211.45z"/>
  <path class="fil1" d="M325 100c34.74,0 67.64,7.88 97.01,21.94l-38.19 38.19c-18.39,-6.56 -38.19,-10.13 -58.82,-10.13 -20.63,0 -40.43,3.57 -58.82,10.13l-38.19 -38.19c29.37,-14.06 62.27,-21.94 97.01,-21.94zm140.44 400.79c-38.49,30.79 -87.32,49.21 -140.44,49.21 -62.13,0 -118.38,-25.19 -159.1,-65.91 -40.71,-40.71 -65.9,-96.96 -65.9,-159.09 0,-34.74 7.88,-67.64 21.94,-97.01l38.19 38.19c-6.56,18.38 -10.13,38.18 -10.13,58.82 0,48.33 19.59,92.08 51.25,123.74 31.67,31.67 75.42,51.26 123.75,51.26 39.31,0 75.59,-12.96 104.81,-34.84l35.63 35.63z"/>
  <path class="fil2" d="M536.45 571.8c-56.84,48.74 -130.7,78.2 -211.45,78.2 -80.75,0 -154.61,-29.46 -211.45,-78.2l35.47 -35.47c47.69,39.75 109.04,63.67 175.98,63.67 66.94,0 128.29,-23.92 175.98,-63.67l35.47 35.47zm-211.45 -571.8c62.57,0 121.02,17.69 170.61,48.34l-36.52 36.51c-39.66,-22.2 -85.4,-34.85 -134.09,-34.85 -48.69,0 -94.43,12.65 -134.09,34.85l-36.52 -36.51c49.59,-30.65 108.04,-48.34 170.61,-48.34z"/>
 </g>
</svg>
