<?xml version="1.0" encoding="UTF-8"?>
<svg id="icone_colorido" data-name="icone colorido" xmlns="http://www.w3.org/2000/svg" xmlns:xlink="http://www.w3.org/1999/xlink" viewBox="0 0 771.581 771.097">
  <defs>
    <style>
      .cls-1 {
        fill: url(#Gradiente_sem_nome_32-11);
      }

      .cls-1, .cls-2, .cls-3, .cls-4, .cls-5, .cls-6, .cls-7, .cls-8, .cls-9, .cls-10, .cls-11, .cls-12, .cls-13, .cls-14, .cls-15, .cls-16, .cls-17, .cls-18, .cls-19, .cls-20, .cls-21, .cls-22, .cls-23, .cls-24, .cls-25, .cls-26 {
        stroke-width: 0px;
      }

      .cls-2 {
        fill: url(#Gradiente_sem_nome_32-25);
      }

      .cls-3 {
        fill: url(#Gradiente_sem_nome_32-21);
      }

      .cls-4 {
        fill: url(#Gradiente_sem_nome_32-22);
      }

      .cls-5 {
        fill: url(#Gradiente_sem_nome_32-8);
      }

      .cls-6 {
        fill: url(#Gradiente_sem_nome_32-16);
      }

      .cls-7 {
        fill: url(#Gradiente_sem_nome_32);
      }

      .cls-8 {
        fill: url(#Gradiente_sem_nome_32-2);
      }

      .cls-9 {
        fill: url(#Gradiente_sem_nome_32-18);
      }

      .cls-10 {
        fill: url(#Gradiente_sem_nome_32-24);
      }

      .cls-11 {
        fill: url(#Gradiente_sem_nome_32-10);
      }

      .cls-12 {
        fill: url(#Gradiente_sem_nome_32-26);
      }

      .cls-13 {
        fill: url(#Gradiente_sem_nome_32-12);
      }

      .cls-14 {
        fill: url(#Gradiente_sem_nome_32-4);
      }

      .cls-15 {
        fill: url(#Gradiente_sem_nome_32-9);
      }

      .cls-16 {
        fill: url(#Gradiente_sem_nome_32-3);
      }

      .cls-17 {
        fill: url(#Gradiente_sem_nome_32-6);
      }

      .cls-18 {
        fill: url(#Gradiente_sem_nome_32-23);
      }

      .cls-19 {
        fill: url(#Gradiente_sem_nome_32-5);
      }

      .cls-20 {
        fill: url(#Gradiente_sem_nome_32-15);
      }

      .cls-21 {
        fill: url(#Gradiente_sem_nome_32-17);
      }

      .cls-22 {
        fill: url(#Gradiente_sem_nome_32-19);
      }

      .cls-23 {
        fill: url(#Gradiente_sem_nome_32-14);
      }

      .cls-24 {
        fill: url(#Gradiente_sem_nome_32-13);
      }

      .cls-25 {
        fill: url(#Gradiente_sem_nome_32-20);
      }

      .cls-26 {
        fill: url(#Gradiente_sem_nome_32-7);
      }
    </style>
    <linearGradient id="Gradiente_sem_nome_32" data-name="Gradiente sem nome 32" x1="118.526" y1="652.388" x2="652.205" y2="118.709" gradientUnits="userSpaceOnUse">
      <stop offset="0" stop-color="#452c7a"/>
      <stop offset="1" stop-color="#713289"/>
    </linearGradient>
    <linearGradient id="Gradiente_sem_nome_32-2" data-name="Gradiente sem nome 32" x1="550.402" y1="436.429" x2="652.163" y2="334.668" xlink:href="#Gradiente_sem_nome_32"/>
    <linearGradient id="Gradiente_sem_nome_32-3" data-name="Gradiente sem nome 32" x1="467.91" y1="87.004" x2="518.822" y2="36.093" xlink:href="#Gradiente_sem_nome_32"/>
    <linearGradient id="Gradiente_sem_nome_32-4" data-name="Gradiente sem nome 32" x1="252.056" y1="87.004" x2="302.968" y2="36.093" xlink:href="#Gradiente_sem_nome_32"/>
    <linearGradient id="Gradiente_sem_nome_32-5" data-name="Gradiente sem nome 32" x1="467.91" y1="735.004" x2="518.822" y2="684.092" xlink:href="#Gradiente_sem_nome_32"/>
    <linearGradient id="Gradiente_sem_nome_32-6" data-name="Gradiente sem nome 32" x1="252.056" y1="735.004" x2="302.968" y2="684.092" xlink:href="#Gradiente_sem_nome_32"/>
    <linearGradient id="Gradiente_sem_nome_32-7" data-name="Gradiente sem nome 32" x1="36.081" y1="303.004" x2="86.992" y2="252.093" xlink:href="#Gradiente_sem_nome_32"/>
    <linearGradient id="Gradiente_sem_nome_32-8" data-name="Gradiente sem nome 32" x1="36.081" y1="519.004" x2="86.992" y2="468.093" xlink:href="#Gradiente_sem_nome_32"/>
    <linearGradient id="Gradiente_sem_nome_32-9" data-name="Gradiente sem nome 32" x1="252.056" y1="303.004" x2="302.968" y2="252.093" xlink:href="#Gradiente_sem_nome_32"/>
    <linearGradient id="Gradiente_sem_nome_32-10" data-name="Gradiente sem nome 32" x1="252.056" y1="519.004" x2="302.968" y2="468.093" xlink:href="#Gradiente_sem_nome_32"/>
    <linearGradient id="Gradiente_sem_nome_32-11" data-name="Gradiente sem nome 32" x1="683.812" y1="303.004" x2="734.724" y2="252.093" xlink:href="#Gradiente_sem_nome_32"/>
    <linearGradient id="Gradiente_sem_nome_32-12" data-name="Gradiente sem nome 32" x1="683.812" y1="519.004" x2="734.724" y2="468.093" xlink:href="#Gradiente_sem_nome_32"/>
    <linearGradient id="Gradiente_sem_nome_32-13" data-name="Gradiente sem nome 32" x1="334.485" y1="652.429" x2="436.246" y2="550.668" xlink:href="#Gradiente_sem_nome_32"/>
    <linearGradient id="Gradiente_sem_nome_32-14" data-name="Gradiente sem nome 32" x1="495.571" y1="657.033" x2="1029.249" y2="123.354" gradientTransform="translate(-377.045 -4.645)" xlink:href="#Gradiente_sem_nome_32"/>
    <linearGradient id="Gradiente_sem_nome_32-15" data-name="Gradiente sem nome 32" x1="495.571" y1="657.033" x2="1029.249" y2="123.354" gradientTransform="translate(-377.045 -4.645)" xlink:href="#Gradiente_sem_nome_32"/>
    <linearGradient id="Gradiente_sem_nome_32-16" data-name="Gradiente sem nome 32" x1="495.571" y1="657.033" x2="1029.249" y2="123.354" gradientTransform="translate(-377.045 -4.645)" xlink:href="#Gradiente_sem_nome_32"/>
    <linearGradient id="Gradiente_sem_nome_32-17" data-name="Gradiente sem nome 32" x1="495.571" y1="657.033" x2="1029.249" y2="123.354" gradientTransform="translate(-377.045 -4.645)" xlink:href="#Gradiente_sem_nome_32"/>
    <linearGradient id="Gradiente_sem_nome_32-18" data-name="Gradiente sem nome 32" x1="495.571" y1="657.033" x2="1029.249" y2="123.354" gradientTransform="translate(-377.045 -4.645)" xlink:href="#Gradiente_sem_nome_32"/>
    <linearGradient id="Gradiente_sem_nome_32-19" data-name="Gradiente sem nome 32" x1="495.571" y1="657.033" x2="1029.249" y2="123.354" gradientTransform="translate(-377.045 -4.645)" xlink:href="#Gradiente_sem_nome_32"/>
    <linearGradient id="Gradiente_sem_nome_32-20" data-name="Gradiente sem nome 32" x1="495.571" y1="657.033" x2="1029.249" y2="123.354" gradientTransform="translate(-377.045 -4.645)" xlink:href="#Gradiente_sem_nome_32"/>
    <linearGradient id="Gradiente_sem_nome_32-21" data-name="Gradiente sem nome 32" x1="495.571" y1="657.033" x2="1029.249" y2="123.354" gradientTransform="translate(-377.045 -4.645)" xlink:href="#Gradiente_sem_nome_32"/>
    <linearGradient id="Gradiente_sem_nome_32-22" data-name="Gradiente sem nome 32" x1="495.571" y1="657.033" x2="1029.249" y2="123.354" gradientTransform="translate(-377.045 -4.645)" xlink:href="#Gradiente_sem_nome_32"/>
    <linearGradient id="Gradiente_sem_nome_32-23" data-name="Gradiente sem nome 32" x1="495.571" y1="657.033" x2="1029.249" y2="123.354" gradientTransform="translate(-377.045 -4.645)" xlink:href="#Gradiente_sem_nome_32"/>
    <linearGradient id="Gradiente_sem_nome_32-24" data-name="Gradiente sem nome 32" x1="495.571" y1="657.033" x2="1029.249" y2="123.354" gradientTransform="translate(-377.045 -4.645)" xlink:href="#Gradiente_sem_nome_32"/>
    <linearGradient id="Gradiente_sem_nome_32-25" data-name="Gradiente sem nome 32" x1="495.571" y1="657.033" x2="1029.249" y2="123.354" gradientTransform="translate(-377.045 -4.645)" xlink:href="#Gradiente_sem_nome_32"/>
    <linearGradient id="Gradiente_sem_nome_32-26" data-name="Gradiente sem nome 32" x1="495.571" y1="657.033" x2="1029.249" y2="123.354" gradientTransform="translate(-377.045 -4.645)" xlink:href="#Gradiente_sem_nome_32"/>
  </defs>
  <g>
    <path class="cls-7" d="m601.283,97.548c-26.302,0-49.295,14.145-61.834,35.244-3.327,4.812-9.41,12.031-19.285,17.53-11.167,6.218-21.594,7.121-26.746,7.226h-.105c-5.151-.105-15.579-1.008-26.746-7.226-11.021-6.137-17.327-14.422-20.338-19.105-.055-.087-.111-.173-.166-.259-.165-.26-.326-.515-.47-.75,0,.005,0,.01-.001.014-12.837-19.668-35.009-32.675-60.227-32.675-26.342,0-49.364,14.189-61.89,35.342-3.342,4.812-9.411,11.971-19.218,17.432-11.167,6.218-21.594,7.121-26.746,7.226h-.105c-5.151-.105-15.579-1.008-26.746-7.226-11.86-6.604-18.265-15.701-20.974-20.114,0,.01-.002.02-.002.03-12.836-19.677-35.012-32.69-60.236-32.69-39.716,0-71.912,32.236-71.912,72,0,25.231,12.972,47.416,32.593,60.273-.007,0-.013,0-.02.001,4.412,2.71,13.51,9.115,20.114,20.974,6.218,11.167,7.121,21.594,7.226,26.745v.105c-.105,5.151-1.008,15.579-7.226,26.745-5.451,9.789-12.594,15.854-17.406,19.2-21.117,12.543-35.281,35.588-35.281,61.955s14.164,49.412,35.281,61.955c4.812,3.346,11.954,9.411,17.405,19.2,6.218,11.167,7.121,21.594,7.226,26.746v.105c-.105,5.151-1.008,15.579-7.226,26.746-6.604,11.86-15.701,18.265-20.114,20.974.007,0,.013,0,.02.001-19.621,12.857-32.593,35.042-32.593,60.273,0,39.765,32.196,72,71.912,72s71.912-32.235,71.912-72c0-25.293-13.037-47.524-32.739-60.367.055-.004.111-.009.166-.013-4.412-2.71-13.51-9.115-20.114-20.974-5.109-9.175-6.627-17.842-7.065-23.501v-6.384c.438-5.659,1.956-14.326,7.065-23.501,6.604-11.86,15.701-18.265,20.114-20.974-.012,0-.024-.002-.036-.003,19.629-12.856,32.608-35.046,32.608-60.283s-12.979-47.427-32.608-60.283c.012,0,.024-.002.036-.003-4.412-2.709-13.51-9.114-20.114-20.974-5.109-9.176-6.627-17.842-7.065-23.501v-6.384c.438-5.66,1.956-14.326,7.065-23.501,6.604-11.86,15.701-18.265,20.114-20.974-.055-.004-.111-.009-.166-.013,8.448-5.507,15.664-12.739,21.157-21.203.005.059.009.117.014.176,2.71-4.412,9.114-13.51,20.974-20.114,11.131-6.198,21.525-7.115,26.693-7.224,5.168.109,15.562,1.026,26.693,7.224,11.86,6.604,18.265,15.701,20.974,20.114,0-.01.002-.02.002-.03,12.836,19.677,35.012,32.69,60.237,32.69s47.498-13.072,60.32-32.821c.004.054.008.107.012.161,2.71-4.412,9.115-13.51,20.974-20.114,22.333-11.671,68.701-13.59,65.662,20.383-.636,10.856-8.495,21.496-15.87,28.224l-7.572,7.67c-4.695-2.244-9.952-3.503-15.502-3.503-19.882,0-36,16.118-36,36,0,5.551,1.259,10.807,3.502,15.503l-7.831,7.718s-11.693,10.24-23.947,13.728c-11.12,3.166-20.707,2.253-26.421,1.169-5.551-1.375-11.352-2.118-17.328-2.118-39.716,0-71.912,32.236-71.912,72s32.196,72,71.912,72c5.083,0,10.04-.535,14.825-1.539-.003.004-.006.007-.01.011,5.036-1.204,15.998-3.108,29.053.609,12.293,3.499,20.305,10.234,24.021,13.802l7.637,7.615c-2.244,4.695-3.502,9.952-3.502,15.502,0,19.882,16.118,36,36,36,5.551,0,10.807-1.259,15.502-3.502l7.751,7.788s10.24,11.693,13.728,23.947c3.003,10.549,2.336,19.727,1.334,25.52-1.521,5.828-2.336,11.942-2.336,18.247,0,39.765,32.196,72,71.912,72s71.912-32.235,71.912-72-32.196-72-71.912-72c-6.227,0-12.269.794-18.031,2.284-5.779,1.023-15.058,1.747-25.745-1.295-11.623-3.309-19.414-9.506-23.37-13.188l-8.264-8.264c2.254-4.704,3.518-9.972,3.518-15.536,0-19.882-16.118-36-36-36-5.564,0-10.833,1.264-15.536,3.518l-7.896-7.896c-1.218-1.426-10.337-12.36-13.59-23.786-3.717-13.056-1.812-24.017-.609-29.053-.003.002-.005.004-.007.007.996-4.774,1.525-9.719,1.525-14.789,0-5.102-.538-10.077-1.546-14.879.006.005.012.01.018.016-1.204-5.036-3.108-15.998.609-29.053,3.086-10.84,8.685-18.347,12.413-22.519l9.083-9.082c4.704,2.254,9.972,3.518,15.536,3.518,19.882,0,36-16.118,36-36,0-5.564-1.264-10.832-3.518-15.536l8.324-8.324c2.578-2.141,12.734-10.182,23.315-13.194,10.346-2.945,19.364-2.359,25.173-1.39,5.934,1.587,12.165,2.445,18.598,2.445,39.716,0,71.912-32.235,71.912-72s-32.196-72-71.912-72Z"/>
    <ellipse class="cls-8" cx="601.283" cy="385.548" rx="71.912" ry="72"/>
    <circle class="cls-16" cx="493.366" cy="61.548" r="36"/>
    <circle class="cls-14" cx="277.512" cy="61.548" r="36"/>
    <circle class="cls-19" cx="493.366" cy="709.548" r="36"/>
    <circle class="cls-17" cx="277.512" cy="709.548" r="36"/>
    <circle class="cls-26" cx="61.536" cy="277.548" r="36"/>
    <circle class="cls-5" cx="61.536" cy="493.548" r="36"/>
    <circle class="cls-15" cx="277.512" cy="277.548" r="36"/>
    <circle class="cls-11" cx="277.512" cy="493.548" r="36"/>
    <circle class="cls-1" cx="709.268" cy="277.548" r="36"/>
    <circle class="cls-13" cx="709.268" cy="493.548" r="36"/>
    <ellipse class="cls-24" cx="385.366" cy="601.548" rx="71.912" ry="72"/>
  </g>
  <g>
    <path class="cls-23" d="m601.283,97.548c-26.302,0-49.295,14.145-61.834,35.244-3.327,4.812-9.41,12.031-19.285,17.53-11.167,6.218-21.594,7.121-26.746,7.226h-.105c-5.151-.105-15.579-1.008-26.746-7.226-11.021-6.137-17.327-14.422-20.338-19.105-.055-.087-.111-.173-.166-.259-.165-.26-.326-.515-.47-.75,0,.005,0,.01-.001.014-12.837-19.668-35.009-32.675-60.227-32.675-26.342,0-49.364,14.189-61.89,35.342-3.342,4.812-9.411,11.971-19.218,17.432-11.167,6.218-21.594,7.121-26.746,7.226h-.105c-5.151-.105-15.579-1.008-26.746-7.226-11.86-6.604-18.265-15.701-20.974-20.114,0,.01-.002.02-.002.03-12.836-19.677-35.012-32.69-60.236-32.69-39.716,0-71.912,32.236-71.912,72,0,25.231,12.972,47.416,32.593,60.273-.007,0-.013,0-.02.001,4.412,2.71,13.51,9.115,20.114,20.974,6.218,11.167,7.121,21.594,7.226,26.745v.105c-.105,5.151-1.008,15.579-7.226,26.745-5.451,9.789-12.594,15.854-17.406,19.2-21.117,12.543-35.281,35.588-35.281,61.955s14.164,49.412,35.281,61.955c4.812,3.346,11.954,9.411,17.405,19.2,6.218,11.167,7.121,21.594,7.226,26.746v.105c-.105,5.151-1.008,15.579-7.226,26.746-6.604,11.86-15.701,18.265-20.114,20.974.007,0,.013,0,.02.001-19.621,12.857-32.593,35.042-32.593,60.273,0,39.765,32.196,72,71.912,72s71.912-32.235,71.912-72c0-25.293-13.037-47.524-32.739-60.367.055-.004.111-.009.166-.013-4.412-2.71-13.51-9.115-20.114-20.974-5.109-9.175-6.627-17.842-7.065-23.501v-6.384c.438-5.659,1.956-14.326,7.065-23.501,6.604-11.86,15.701-18.265,20.114-20.974-.012,0-.024-.002-.036-.003,19.629-12.856,32.608-35.046,32.608-60.283s-12.979-47.427-32.608-60.283c.012,0,.024-.002.036-.003-4.412-2.709-13.51-9.114-20.114-20.974-5.109-9.176-6.627-17.842-7.065-23.501v-6.384c.438-5.66,1.956-14.326,7.065-23.501,6.604-11.86,15.701-18.265,20.114-20.974-.055-.004-.111-.009-.166-.013,8.448-5.507,15.664-12.739,21.157-21.203.005.059.009.117.014.176,2.71-4.412,9.114-13.51,20.974-20.114,11.131-6.198,21.525-7.115,26.693-7.224,5.168.109,15.562,1.026,26.693,7.224,11.86,6.604,18.265,15.701,20.974,20.114,0-.01.002-.02.002-.03,12.836,19.677,35.012,32.69,60.237,32.69s47.498-13.072,60.32-32.821c.004.054.008.107.012.161,2.71-4.412,9.115-13.51,20.974-20.114,22.333-11.671,68.701-13.59,65.662,20.383-.636,10.856-8.495,21.496-15.87,28.224l-7.572,7.67c-4.695-2.244-9.952-3.503-15.502-3.503-19.882,0-36,16.118-36,36,0,5.551,1.259,10.807,3.502,15.503l-7.831,7.718s-11.693,10.24-23.947,13.728c-11.12,3.166-20.707,2.253-26.421,1.169-5.551-1.375-11.352-2.118-17.328-2.118-39.716,0-71.912,32.236-71.912,72s32.196,72,71.912,72c5.083,0,10.04-.535,14.825-1.539-.003.004-.006.007-.01.011,5.036-1.204,15.998-3.108,29.053.609,12.293,3.499,20.305,10.234,24.021,13.802l7.637,7.615c-2.244,4.695-3.502,9.952-3.502,15.502,0,19.882,16.118,36,36,36,5.551,0,10.807-1.259,15.502-3.502l7.751,7.788s10.24,11.693,13.728,23.947c3.003,10.549,2.336,19.727,1.334,25.52-1.521,5.828-2.336,11.942-2.336,18.247,0,39.765,32.196,72,71.912,72s71.912-32.235,71.912-72-32.196-72-71.912-72c-6.227,0-12.269.794-18.031,2.284-5.779,1.023-15.058,1.747-25.745-1.295-11.623-3.309-19.414-9.506-23.37-13.188l-8.264-8.264c2.254-4.704,3.518-9.972,3.518-15.536,0-19.882-16.118-36-36-36-5.564,0-10.833,1.264-15.536,3.518l-7.896-7.896c-1.218-1.426-10.337-12.36-13.59-23.786-3.717-13.056-1.812-24.017-.609-29.053-.003.002-.005.004-.007.007.996-4.774,1.525-9.719,1.525-14.789,0-5.102-.538-10.077-1.546-14.879.006.005.012.01.018.016-1.204-5.036-3.108-15.998.609-29.053,3.086-10.84,8.685-18.347,12.413-22.519l9.083-9.082c4.704,2.254,9.972,3.518,15.536,3.518,19.882,0,36-16.118,36-36,0-5.564-1.264-10.832-3.518-15.536l8.324-8.324c2.578-2.141,12.734-10.182,23.315-13.194,10.346-2.945,19.364-2.359,25.173-1.39,5.934,1.587,12.165,2.445,18.598,2.445,39.716,0,71.912-32.235,71.912-72s-32.196-72-71.912-72Z"/>
    <ellipse class="cls-20" cx="601.283" cy="385.548" rx="71.912" ry="72"/>
    <circle class="cls-6" cx="493.366" cy="61.548" r="36"/>
    <circle class="cls-21" cx="277.512" cy="61.548" r="36"/>
    <circle class="cls-9" cx="493.366" cy="709.548" r="36"/>
    <circle class="cls-22" cx="277.512" cy="709.548" r="36"/>
    <circle class="cls-25" cx="61.536" cy="277.548" r="36"/>
    <circle class="cls-3" cx="61.536" cy="493.548" r="36"/>
    <circle class="cls-4" cx="277.512" cy="277.548" r="36"/>
    <circle class="cls-18" cx="277.512" cy="493.548" r="36"/>
    <circle class="cls-10" cx="709.268" cy="277.548" r="36"/>
    <circle class="cls-2" cx="709.268" cy="493.548" r="36"/>
    <ellipse class="cls-12" cx="385.366" cy="601.548" rx="71.912" ry="72"/>
  </g>
</svg>