<?xml version="1.0" encoding="UTF-8"?>
<svg id="Camada_2" data-name="Camada 2" xmlns="http://www.w3.org/2000/svg" viewBox="0 0 3751.177 3751.165">
  <defs>
    <style>
      .cls-1 {
        fill: #fff;
        stroke-width: 0px;
      }
    </style>
  </defs>
  <g id="Ebene_1" data-name="Ebene 1">
    <path class="cls-1" d="m3592.5,0l-529.388,529.394c-316.843-279.915-732.723-450.061-1187.523-450.061C885.152,79.333,79.339,885.151,79.339,1875.582c0,327.064,87.817,633.675,241.001,898.125h498.459l-289.398,289.398L0,3592.5l158.678,158.665,529.388-529.394c316.843,279.915,732.723,450.062,1187.523,450.062,990.437,0,1796.25-805.819,1796.25-1796.25,0-327.063-87.817-633.674-241.001-898.125h-498.459l818.798-818.792L3592.5,0ZM977.464,1875.582c0-495.961,402.163-898.125,898.125-898.125,207.562,0,398.667,70.355,550.852,188.608l-1260.369,1260.369c-118.259-152.185-188.608-343.284-188.608-550.852Zm898.125,898.125c-207.562,0-398.667-70.354-550.852-188.607l1260.369-1260.369c118.259,152.185,188.608,343.284,188.608,550.852,0,495.962-402.164,898.125-898.125,898.125Z"/>
  </g>
</svg>