<?xml version="1.0" encoding="UTF-8"?>
<svg id="Camada_2" data-name="Camada 2" xmlns="http://www.w3.org/2000/svg" viewBox="0 0 307.682 150.031">
  <defs>
    <style>
      .cls-1 {
        fill: #0072bb;
        fill-rule: evenodd;
        stroke-width: 0px;
      }
    </style>
  </defs>
  <g id="Camada_1-2" data-name="Camada 1">
    <g>
      <path class="cls-1" d="m227.358,90.318v-9.493h6.87l-1.999-21.361h-.25l-4.621,8.618v-18.613h16.239l9.245,51.093h-15.991l-1.248-10.244h-8.245Zm31.23,10.244l10.867-50.967h38.227l-2.123,9.744h-24.235l-2.249,10.616h22.861l-2.123,9.745h-22.861l-2.249,10.994h24.859l-2.124,9.868h-38.85Zm-31.23-51.093v18.613l-6.996,12.743h6.996v9.493h-12.243l-5.746,10.244h-11.992v-3.498l28.856-47.595h1.125Zm-29.981,18.114c.749-1.374,1.374-2.873,1.624-4.622.374-1.248.499-2.623.499-3.873,0-2.372-.624-4.371-1.873-5.995-.125-.127-.25-.127-.25-.25v14.74Zm0-14.74v14.74c-1.249,2.123-2.873,3.747-4.997,4.872-2.374,1.374-5.122,2.248-8.37,2.624l-.125.375c3.748,0,6.247.749,7.495,2.123,1.125,1.125,1.75,3.122,1.75,5.745,0,.874-.126,2.499-.25,4.624-.375,6.371-.5,10.491-.25,12.616h-15.365c-.126-1.873.124-5.745.749-11.493.25-2.124.25-3.499.25-4.247,0-1.5-.375-2.623-1.125-3.248-.124-.126-.249-.126-.374-.249v-9.995c1.499-.124,2.498-.249,3.123-.373,2.623-.751,4.372-2.75,4.872-5.747.25-.749.25-1.374.25-1.874,0-1.998-.875-3.248-2.874-3.872-.999-.376-2.873-.625-5.371-.625v-9.37h5.871c3.998,0,6.746,0,8.12.251,2.998.375,5.247,1.498,6.621,3.123h0Zm0,44.221l-2.124,3.498h2.124v-3.498Zm-20.612-47.595v9.37h-5.496l-2.624,12.491h8.12v9.995c-.75-.5-2.248-.751-4.248-.751h-5.871l-4.247,19.988h-14.241l10.868-51.093h17.739Zm-51.968,50.843v-9.869c2.249-.874,3.623-2.624,4.123-5.122.125-.625.249-1.248.249-1.748,0-2.374-1.498-3.873-4.372-4.371v-9.247c1.874,0,3.124-.249,3.873-.499,1.999-.998,3.248-2.747,3.748-4.995.374-2,.124-3.499-1-4.497-.874-.876-2.248-1.25-4.372-1.25h-2.249v-9.245h3.248c4.248,0,7.495.126,9.369.5,3.248.625,5.746,1.749,7.496,3.623,1.499,1.75,2.249,3.747,2.249,6.121,0,.874,0,1.749-.25,2.623-1.25,5.996-5.746,9.868-13.367,11.618l-.125.251c6.745,1.123,9.993,4.371,9.993,9.492,0,3.124-.874,6.123-2.623,8.746-1.874,2.623-4.248,4.62-7.246,5.994-1.999.999-4.997,1.624-8.745,1.874Zm0-50.843v9.245h-5.371l-2.499,11.369h6.746c.374,0,.75,0,1.124-.128v9.247c-.75,0-1.498-.126-2.373-.126h-7.37l-2.5,12.118h7.746c1.749,0,3.249-.251,4.497-.751v9.869c-1.748.125-3.498.25-5.497.25h-21.362v-5.996l9.619-45.098h17.239Zm-26.858,6.122l1.374-5.996h-1.374v5.996ZM.499,84.323h14.116c-.124.875-.249,1.624-.249,2.249,0,3.746,2.373,5.62,7.246,5.62,4.997,0,7.995-1.874,8.869-5.747.124-.498.124-.998.124-1.374,0-1.749-1.124-2.998-3.497-3.623l-11.868-3.246c-6.745-1.876-9.993-5.371-9.993-10.744,0-1,0-2.123.25-3.248.999-4.622,3.497-8.245,7.495-11.117,4.497-3.373,10.244-4.998,17.489-4.998,11.993,0,17.989,3.873,17.989,11.618,0,1.374-.25,2.874-.625,4.748h-14.365c.25-1,.374-1.751.374-2.374,0-3.124-1.874-4.748-5.496-4.748-1.999,0-3.748.5-5.247,1.5-1.499,1-2.374,2.374-2.624,3.871-.124.5-.124.877-.124,1.251,0,1.872,1.374,3.246,4.122,3.997l8.995,2.497c3.997,1.125,6.745,2.125,8.245,3.25,2.623,1.749,3.997,4.371,3.997,7.743,0,1.251-.125,2.374-.499,3.75-1.124,5.496-4.122,9.619-9.12,12.49-4.497,2.748-10.119,3.996-16.864,3.996-8.745,0-14.491-1.996-17.365-6.12-1.249-1.874-1.873-4.122-1.873-6.87,0-1.125.124-2.625.499-4.372H.499Zm97.439-34.728v5.996l-.749,3.748h-24.36l-2.249,10.616h22.986l-2.124,9.745h-22.985l-2.249,10.994h24.859l-2.123,9.868h-38.976l10.869-50.967h37.101Zm0,44.972l-1.248,5.996h1.248v-5.996Z"/>
      <g>
        <polygon class="cls-1" points="112.679 24.734 207.995 24.734 204.497 41.225 109.181 41.225 112.679 24.734"/>
        <polygon class="cls-1" points="117.801 0 213.117 0 209.619 16.49 114.303 16.49 117.801 0"/>
      </g>
      <g>
        <polygon class="cls-1" points="89.819 133.542 185.133 133.542 181.636 150.031 86.321 150.031 89.819 133.542"/>
        <polygon class="cls-1" points="94.94 108.808 190.255 108.808 186.757 125.296 91.442 125.296 94.94 108.808"/>
      </g>
    </g>
  </g>
</svg>