<?xml version="1.0" encoding="UTF-8"?>
<svg id="Camada_2" data-name="Camada 2" xmlns="http://www.w3.org/2000/svg" viewBox="0 0 5388.75 5388.75">
  <defs>
    <style>
      .cls-1 {
        fill: #fff;
        stroke-width: 0px;
      }
    </style>
  </defs>
  <g id="Ebene_1" data-name="Ebene 1">
    <g>
      <path class="cls-1" d="m3403.892,2143.523l-1260.369,1260.369c152.185,118.253,343.29,188.608,550.852,188.608,495.962,0,898.125-402.163,898.125-898.125,0-207.568-70.349-398.667-188.608-550.852Zm-709.517-347.273c-495.962,0-898.125,402.163-898.125,898.125,0,207.568,70.349,398.667,188.608,550.852l1260.369-1260.369c-152.185-118.253-343.29-188.608-550.852-188.608Zm0,0c-495.962,0-898.125,402.163-898.125,898.125,0,207.568,70.349,398.667,188.608,550.852l1260.369-1260.369c-152.185-118.253-343.29-188.608-550.852-188.608Zm709.517,347.273l-1260.369,1260.369c152.185,118.253,343.29,188.608,550.852,188.608,495.962,0,898.125-402.163,898.125-898.125,0-207.568-70.349-398.667-188.608-550.852Zm0,0l-1260.369,1260.369c152.185,118.253,343.29,188.608,550.852,188.608,495.962,0,898.125-402.163,898.125-898.125,0-207.568-70.349-398.667-188.608-550.852Zm-709.517-347.273c-495.962,0-898.125,402.163-898.125,898.125,0,207.568,70.349,398.667,188.608,550.852l1260.369-1260.369c-152.185-118.253-343.29-188.608-550.852-188.608Zm0,0c-495.962,0-898.125,402.163-898.125,898.125,0,207.568,70.349,398.667,188.608,550.852l1260.369-1260.369c-152.185-118.253-343.29-188.608-550.852-188.608Zm709.517,347.273l-1260.369,1260.369c152.185,118.253,343.29,188.608,550.852,188.608,495.962,0,898.125-402.163,898.125-898.125,0-207.568-70.349-398.667-188.608-550.852Zm-709.517-347.273c-495.962,0-898.125,402.163-898.125,898.125,0,207.568,70.349,398.667,188.608,550.852l1260.369-1260.369c-152.185-118.253-343.29-188.608-550.852-188.608Zm709.517,347.273l-1260.369,1260.369c152.185,118.253,343.29,188.608,550.852,188.608,495.962,0,898.125-402.163,898.125-898.125,0-207.568-70.349-398.667-188.608-550.852Zm0,0l-1260.369,1260.369c152.185,118.253,343.29,188.608,550.852,188.608,495.962,0,898.125-402.163,898.125-898.125,0-207.568-70.349-398.667-188.608-550.852Zm-709.517-347.273c-495.962,0-898.125,402.163-898.125,898.125,0,207.568,70.349,398.667,188.608,550.852l1260.369-1260.369c-152.185-118.253-343.29-188.608-550.852-188.608Zm0,0c-495.962,0-898.125,402.163-898.125,898.125,0,207.568,70.349,398.667,188.608,550.852l1260.369-1260.369c-152.185-118.253-343.29-188.608-550.852-188.608Zm709.517,347.273l-1260.369,1260.369c152.185,118.253,343.29,188.608,550.852,188.608,495.962,0,898.125-402.163,898.125-898.125,0-207.568-70.349-398.667-188.608-550.852Z"/>
      <path class="cls-1" d="m0,0v5388.75h5388.75V0H0Zm4490.625,2694.375c0,990.431-805.813,1796.25-1796.25,1796.25-454.8,0-870.68-170.146-1187.523-450.061l-529.388,529.394-158.678-158.665,529.4-529.394,289.398-289.398h-498.459c-153.184-264.45-241.001-571.061-241.001-898.125,0-990.431,805.813-1796.25,1796.25-1796.25,454.8,0,870.68,170.146,1187.523,450.061l529.388-529.394,158.678,158.665-818.798,818.792h498.459c153.184,264.45,241.001,571.061,241.001,898.125Z"/>
    </g>
  </g>
</svg>